<?xml version="1.0" encoding="UTF-8" standalone="no"?>
<svg
   xmlns:dc="http://purl.org/dc/elements/1.1/"
   xmlns:cc="http://creativecommons.org/ns#"
   xmlns:rdf="http://www.w3.org/1999/02/22-rdf-syntax-ns#"
   xmlns:svg="http://www.w3.org/2000/svg"
   xmlns="http://www.w3.org/2000/svg"
   xmlns:sodipodi="http://sodipodi.sourceforge.net/DTD/sodipodi-0.dtd"
   xmlns:inkscape="http://www.inkscape.org/namespaces/inkscape"
   id="Icons"
   height="23.999998"
   viewBox="0 0 2.8124998 2.8124998"
   width="23.999998"
   version="1.1"
   sodipodi:docname="icon_player.svg"
   inkscape:version="0.92.3 (2405546, 2018-03-11)">
  <metadata
     id="metadata25">
    <rdf:RDF>
      <cc:Work
         rdf:about="">
        <dc:format>image/svg+xml</dc:format>
        <dc:type
           rdf:resource="http://purl.org/dc/dcmitype/StillImage" />
        <dc:title></dc:title>
      </cc:Work>
    </rdf:RDF>
  </metadata>
  <defs
     id="defs23" />
  <sodipodi:namedview
     pagecolor="#ffffff"
     bordercolor="#666666"
     borderopacity="1"
     objecttolerance="10"
     gridtolerance="10"
     guidetolerance="10"
     inkscape:pageopacity="0"
     inkscape:pageshadow="2"
     inkscape:window-width="1920"
     inkscape:window-height="1017"
     id="namedview21"
     showgrid="false"
     fit-margin-top="0"
     fit-margin-left="0"
     fit-margin-right="0"
     fit-margin-bottom="0"
     inkscape:zoom="3.6875"
     inkscape:cx="-13.936079"
     inkscape:cy="104.21129"
     inkscape:window-x="-8"
     inkscape:window-y="490"
     inkscape:window-maximized="1"
     inkscape:current-layer="Icons" />
  <g
     id="g841"
     transform="matrix(0.05022321,0,0,0.05022321,-0.10044642,-0.10044642)"
     style="stroke-width:19.91111183">
    <ellipse
       id="ellipse2"
       ry="5"
       rx="4"
       cy="7"
       cx="30"
       style="stroke-width:19.91111183" />
    <path
       id="path4"
       d="m 30,14 a 5.188,5.188 0 0 0 1.512,-0.234 9.282,9.282 0 0 0 1.272,2.334 2.992,2.992 0 0 1 -5.568,0 9.282,9.282 0 0 0 1.272,-2.338 A 5.188,5.188 0 0 0 30,14 Z"
       inkscape:connector-curvature="0"
       style="stroke-width:19.91111183" />
    <path
       id="path6"
       d="M 3,22 A 1,1 0 0 1 2,21 v -1 a 1,1 0 0 1 1,-1 h 16.522 l 0.394,3 z"
       inkscape:connector-curvature="0"
       style="stroke-width:19.91111183" />
    <path
       id="path8"
       d="M 35.832,39 H 31 v -3 a 1,1 0 0 0 -2,0 v 3 h -4.832 l -0.92,-7 h 13.5 z"
       inkscape:connector-curvature="0"
       style="stroke-width:19.91111183" />
    <path
       id="path10"
       d="M 24.431,41 H 29 v 11 h -3.123 z"
       inkscape:connector-curvature="0"
       style="stroke-width:19.91111183" />
    <rect
       id="rect12"
       y="54"
       x="23"
       width="14.001"
       rx="1"
       height="4"
       style="stroke-width:19.91111183" />
    <path
       id="path14"
       d="M 31,52 V 41 h 4.569 l -1.446,11 z"
       inkscape:connector-curvature="0"
       style="stroke-width:19.91111183" />
    <path
       id="path16"
       d="M 38.559,18.258 37.015,30 H 37 23 22.985 L 21.441,18.258 A 1.967,1.967 0 0 1 21.917,16.681 2,2 0 0 1 23.42,16 h 1.008 a 0.956,0.956 0 0 1 0.864,0.687 5,5 0 0 0 9.416,0 A 0.956,0.956 0 0 1 35.572,16 h 1.008 a 2,2 0 0 1 1.5,0.681 1.967,1.967 0 0 1 0.479,1.577 z"
       inkscape:connector-curvature="0"
       style="stroke-width:19.91111183" />
    <path
       id="path18"
       d="m 58,21 a 1,1 0 0 1 -1,1 H 40.084 l 0.394,-3 H 57 a 1,1 0 0 1 1,1 z"
       inkscape:connector-curvature="0"
       style="stroke-width:19.91111183" />
  </g>
</svg>
